<?xml version="1.0" encoding="UTF-8"?>
<svg width="256" height="256" viewBox="0 0 256 256" xmlns="http://www.w3.org/2000/svg">
  <defs>
    <!-- Gradient definitions -->
    <linearGradient id="robotGradient" x1="0%" y1="0%" x2="100%" y2="100%">
      <stop offset="0%" style="stop-color:#0057FF;stop-opacity:1" />
      <stop offset="100%" style="stop-color:#003CB8;stop-opacity:1" />
    </linearGradient>
    
    <linearGradient id="eyeGradient" x1="0%" y1="0%" x2="100%" y2="100%">
      <stop offset="0%" style="stop-color:#00FF88;stop-opacity:1" />
      <stop offset="100%" style="stop-color:#00CC6A;stop-opacity:1" />
    </linearGradient>
    
    <radialGradient id="glowEffect" cx="50%" cy="50%" r="50%">
      <stop offset="0%" style="stop-color:#0057FF;stop-opacity:0.3" />
      <stop offset="70%" style="stop-color:#0057FF;stop-opacity:0.1" />
      <stop offset="100%" style="stop-color:#0057FF;stop-opacity:0" />
    </radialGradient>
  </defs>
  
  <!-- Glow effect background -->
  <circle cx="128" cy="128" r="120" fill="url(#glowEffect)" />
  
  <!-- Robot body (main rectangle) -->
  <rect x="64" y="96" width="128" height="96" rx="16" ry="16" fill="url(#robotGradient)" stroke="#FFFFFF" stroke-width="3"/>
  
  <!-- Robot head -->
  <rect x="80" y="64" width="96" height="64" rx="12" ry="12" fill="url(#robotGradient)" stroke="#FFFFFF" stroke-width="3"/>
  
  <!-- Robot eyes -->
  <circle cx="104" cy="88" r="8" fill="url(#eyeGradient)" />
  <circle cx="152" cy="88" r="8" fill="url(#eyeGradient)" />
  
  <!-- Eye highlights -->
  <circle cx="106" cy="86" r="3" fill="#FFFFFF" opacity="0.8" />
  <circle cx="154" cy="86" r="3" fill="#FFFFFF" opacity="0.8" />
  
  <!-- Robot mouth/speaker grille -->
  <rect x="120" y="104" width="16" height="8" rx="4" ry="4" fill="#FFFFFF" opacity="0.6"/>
  <rect x="116" y="108" width="24" height="2" rx="1" ry="1" fill="#FFFFFF" opacity="0.4"/>
  <rect x="118" y="112" width="20" height="2" rx="1" ry="1" fill="#FFFFFF" opacity="0.4"/>
  
  <!-- Robot arms -->
  <rect x="32" y="112" width="32" height="16" rx="8" ry="8" fill="url(#robotGradient)" stroke="#FFFFFF" stroke-width="2"/>
  <rect x="192" y="112" width="32" height="16" rx="8" ry="8" fill="url(#robotGradient)" stroke="#FFFFFF" stroke-width="2"/>
  
  <!-- Robot hands/claws -->
  <circle cx="28" cy="120" r="8" fill="url(#robotGradient)" stroke="#FFFFFF" stroke-width="2"/>
  <circle cx="228" cy="120" r="8" fill="url(#robotGradient)" stroke="#FFFFFF" stroke-width="2"/>
  
  <!-- Robot chest panel -->
  <rect x="88" y="128" width="80" height="48" rx="8" ry="8" fill="#FFFFFF" opacity="0.1" stroke="#FFFFFF" stroke-width="1"/>
  
  <!-- Control panel indicators -->
  <circle cx="108" cy="144" r="4" fill="#00FF88" opacity="0.8" />
  <circle cx="128" cy="144" r="4" fill="#FF6B00" opacity="0.8" />
  <circle cx="148" cy="144" r="4" fill="#FF0066" opacity="0.8" />
  
  <!-- Status bars -->
  <rect x="100" y="156" width="56" height="4" rx="2" ry="2" fill="#FFFFFF" opacity="0.3"/>
  <rect x="100" y="156" width="42" height="4" rx="2" ry="2" fill="#00FF88" opacity="0.8"/>
  
  <rect x="100" y="164" width="56" height="4" rx="2" ry="2" fill="#FFFFFF" opacity="0.3"/>
  <rect x="100" y="164" width="28" height="4" rx="2" ry="2" fill="#FF6B00" opacity="0.8"/>
  
  <!-- Robot legs/base -->
  <rect x="88" y="192" width="24" height="32" rx="12" ry="12" fill="url(#robotGradient)" stroke="#FFFFFF" stroke-width="2"/>
  <rect x="144" y="192" width="24" height="32" rx="12" ry="12" fill="url(#robotGradient)" stroke="#FFFFFF" stroke-width="2"/>
  
  <!-- Robot feet -->
  <ellipse cx="100" cy="232" rx="16" ry="8" fill="url(#robotGradient)" stroke="#FFFFFF" stroke-width="2"/>
  <ellipse cx="156" cy="232" rx="16" ry="8" fill="url(#robotGradient)" stroke="#FFFFFF" stroke-width="2"/>
  
  <!-- Antenna -->
  <line x1="128" y1="64" x2="128" y2="48" stroke="#FFFFFF" stroke-width="3" stroke-linecap="round"/>
  <circle cx="128" cy="44" r="6" fill="#FF6B00" stroke="#FFFFFF" stroke-width="2"/>
  <circle cx="128" cy="44" r="3" fill="#FFFFFF" opacity="0.8"/>
  
  <!-- Decorative elements -->
  <rect x="72" y="80" width="4" height="12" rx="2" ry="2" fill="#FFFFFF" opacity="0.6"/>
  <rect x="180" y="80" width="4" height="12" rx="2" ry="2" fill="#FFFFFF" opacity="0.6"/>
</svg>